<?xml version="1.0" encoding="UTF-8"?>
<svg version="1.1" xmlns="http://www.w3.org/2000/svg" viewBox="0 0 248 236" width="53.87" height="51.26">
<path d="M0 0 C0.69738281 0.00451172 1.39476563 0.00902344 2.11328125 0.01367188 C3.82555803 0.0253998 5.53779033 0.04333347 7.25 0.0625 C7.25 1.0525 7.25 2.0425 7.25 3.0625 C6.39277344 3.30484375 5.53554687 3.5471875 4.65234375 3.796875 C-1.64894691 5.6439275 -7.237182 7.47275805 -12.75 11.0625 C-8.17988553 10.54512855 -3.70274704 9.8793506 0.8125 9 C6.2105211 7.99676168 10.94440089 7.29396696 16.25 9.0625 C15.92 10.0525 15.59 11.0425 15.25 12.0625 C13.02514648 13.0456543 13.02514648 13.0456543 10.12109375 13.88671875 C8.56938477 14.34594727 8.56938477 14.34594727 6.98632812 14.81445312 C5.89771484 15.12318359 4.80910156 15.43191406 3.6875 15.75 C2.59501953 16.07033203 1.50253906 16.39066406 0.37695312 16.72070312 C-2.32901335 17.51240511 -5.03781582 18.29242044 -7.75 19.0625 C-5.57828543 24.0159466 -1.58013754 26.35322703 2.7265625 29.3515625 C4.4765625 30.625 4.4765625 30.625 7.25 33.0625 C7.25 34.3825 7.25 35.7025 7.25 37.0625 C6.92 37.3925 6.59 37.7225 6.25 38.0625 C3.71458702 37.97163549 1.21445216 37.8254055 -1.3125 37.625 C-2.37887695 37.54668945 -2.37887695 37.54668945 -3.46679688 37.46679688 C-5.22821999 37.33675893 -6.98916173 37.20023103 -8.75 37.0625 C-4.24020201 46.94936483 1.21812503 53.55519732 11.31640625 57.96484375 C17.62766782 60.17104127 24.04273212 60.58235149 30.65209961 61.14868164 C36.6990673 61.73201124 42.29630396 63.00396744 48.125 64.6875 C64.13077935 69.18685028 77.44835544 65.95434723 93 61.375 C108.50492909 57.14213097 123.03877901 59.9568895 137.25 67.0625 C141.9762431 67.4826105 144.41649121 66.82214639 148.25 64.0625 C150.00213375 61.70911859 150.00213375 61.70911859 151.375 59.0625 C153.08198313 55.96224955 154.608593 53.43820334 157.25 51.0625 C160.05338174 53.95348742 161.18963039 55.49905032 161.625 59.5625 C161.27102398 62.86627615 160.56242132 65.0516511 159.25 68.0625 C159.105625 69.073125 158.96125 70.08375 158.8125 71.125 C158.21215211 74.2601501 157.44656296 75.77807452 155.25 78.0625 C154.59 78.0625 153.93 78.0625 153.25 78.0625 C152.3105437 80.88086889 152.11491784 82.68303975 152.07421875 85.60546875 C151.73209074 100.32223681 149.77381639 112.54621441 144.5 126.375 C141.16822095 135.38618088 141.50474808 142.96885301 144.25 152.0625 C144.91 152.0625 145.57 152.0625 146.25 152.0625 C149.8986671 156.24511838 152.09227176 159.69657644 152.46484375 165.28515625 C152.12631165 169.66145305 150.95306017 173.81481559 149.80395508 178.03442383 C148.00003903 184.69738883 146.81211349 191.3404647 147.625 198.25 C146.99967144 202.93996418 143.59127629 205.88578336 140.25 209.0625 C137.02786243 211.21059171 135.97224599 211.35636153 132.25 211.0625 C131.25 210.0625 131.25 210.0625 131.0078125 207.375 C131.28501108 203.58363878 132.3157771 201.38662245 134.125 198.0625 C137.33143974 192.11432193 139.40835129 186.75953671 140.0625 180 C140.17207031 178.99839844 140.28164062 177.99679688 140.39453125 176.96484375 C140.22442406 173.54890751 139.20784996 171.81967889 137.25 169.0625 C130.65899109 178.39976263 127.87766022 188.30464927 127.62109375 199.69921875 C127.49863281 200.47910156 127.37617188 201.25898438 127.25 202.0625 C126.26 202.7225 125.27 203.3825 124.25 204.0625 C123.21986723 205.71071244 122.21885372 207.37753702 121.25 209.0625 C119.25 211.0625 119.25 211.0625 116.25 211.25 C113.25 211.0625 113.25 211.0625 111.25 210.0625 C110.43434246 204.81898724 111.43877621 202.4459598 114.5 198.125 C121.0075267 188.48910853 123.19290776 176.51020945 122.828125 164.98046875 C122.19613381 161.79062134 121.65930622 160.78200286 119.1875 158.75 C118.55585938 158.33878906 117.92421875 157.92757812 117.2734375 157.50390625 C113.48098829 154.80233529 110.97575076 150.79073053 108.25 147.0625 C107.12722656 147.4234375 106.00445312 147.784375 104.84765625 148.15625 C92.17865967 152.13425261 84.49607851 152.91056916 71.53515625 149.21875 C66.6742727 147.86254619 61.75316775 146.83228196 56.8125 145.8125 C55.96510254 145.63750977 55.11770508 145.46251953 54.24462891 145.28222656 C52.2470815 144.87240982 50.24863875 144.4669608 48.25 144.0625 C48.07897275 148.43734059 47.91401117 152.81239121 47.75 157.1875 C47.70230469 158.40566406 47.65460938 159.62382812 47.60546875 160.87890625 C46.92763585 176.08139774 46.92763585 176.08139774 47.75 191.25 C49.26028178 204.91016056 49.26028178 204.91016056 46.8125 210.125 C43.32239739 212.76385807 39.63900478 213.9184593 35.25 214.0625 C34.59 213.4025 33.93 212.7425 33.25 212.0625 C33.42811619 207.69865335 34.37175415 204.64530485 36.3125 200.75 C40.5221847 191.63925903 37.85634706 182.35351959 35.25 173.0625 C34.92 172.4025 34.59 171.7425 34.25 171.0625 C32.18865775 182.02964131 31.67165419 192.93304854 31.25 204.0625 C30.26 204.3925 29.27 204.7225 28.25 205.0625 C28.1675 205.84625 28.085 206.63 28 207.4375 C27.25 210.0625 27.25 210.0625 25.625 211.375 C22.45198632 212.29350396 19.53355254 212.18879048 16.25 212.0625 C15.10302152 208.65937705 15.11012723 207.36412508 16.6484375 204.046875 C17.30070312 202.97953125 17.95296875 201.9121875 18.625 200.8125 C24.67111484 190.01413889 23.28274758 182.77907761 20.25 171.0625 C19.99089844 170.051875 19.73179688 169.04125 19.46484375 168 C18.5714322 164.53853103 17.66400626 161.08108616 16.75 157.625 C16.45351562 156.49908447 16.15703125 155.37316895 15.8515625 154.21313477 C13.31661212 143.17573117 13.31661212 143.17573117 6.375 134.75 C0.19689915 129.63164638 -2.01418518 123.19580497 -4.62011719 115.76928711 C-8.04794292 106.08169076 -12.76868687 97.36862138 -17.7890625 88.41796875 C-20.36699303 83.81194603 -22.71757158 79.13232294 -25 74.375 C-28.24647141 67.71777388 -32.04002458 61.78381983 -36.75 56.0625 C-37.52537109 55.09957031 -37.52537109 55.09957031 -38.31640625 54.1171875 C-41.87730744 50.13683178 -46.11862559 47.39607762 -50.6875 44.6875 C-51.26064941 44.34114502 -51.83379883 43.99479004 -52.42431641 43.63793945 C-56.95890135 41.0823504 -60.62187877 40.22740846 -65.75 40.0625 C-67.77919872 40.93177262 -67.77919872 40.93177262 -69.0625 42.5 C-71.75 45.0625 -71.75 45.0625 -74.75 45.0625 C-74.875 39.3125 -74.875 39.3125 -73.75 37.0625 C-73.60484476 32.85299794 -73.7217124 29.02027546 -74.4375 24.875 C-74.75 21.0625 -74.75 21.0625 -73.5625 18.1875 C-71.59112383 15.87623139 -70.56613293 15.13150029 -67.75 14.0625 C-65.35840031 13.88609422 -62.96017505 13.7949712 -60.5625 13.75 C-44.69817432 13.09170001 -28.19907628 10.52369835 -14.32421875 2.515625 C-9.58555924 -0.15930875 -5.35638983 -0.06581575 0 0 Z " fill="#6A81A6" transform="translate(81.75,17.9375)"/>
<path d="M0 0 C3.3522546 2.76561005 4.88771505 4.10172038 5.4375 8.5 C5.02937579 11.76499365 4.30116728 14.01496919 3 17 C2.855625 18.010625 2.71125 19.02125 2.5625 20.0625 C1.96215211 23.1976501 1.19656296 24.71557452 -1 27 C-1.66 27 -2.32 27 -3 27 C-3.9394563 29.81836889 -4.13508216 31.62053975 -4.17578125 34.54296875 C-4.51790926 49.25973681 -6.47618361 61.48371441 -11.75 75.3125 C-15.08177905 84.32368088 -14.74525192 91.90635301 -12 101 C-11.34 101 -10.68 101 -10 101 C-6.3513329 105.18261838 -4.15772824 108.63407644 -3.78515625 114.22265625 C-4.12368835 118.59895305 -5.29693983 122.75231559 -6.44604492 126.97192383 C-8.24996097 133.63488883 -9.43788651 140.2779647 -8.625 147.1875 C-9.25032856 151.87746418 -12.65872371 154.82328336 -16 158 C-19.22213757 160.14809171 -20.27775401 160.29386153 -24 160 C-25 159 -25 159 -25.2421875 156.3125 C-24.96498892 152.52113878 -23.9342229 150.32412245 -22.125 147 C-18.91856026 141.05182193 -16.84164871 135.69703671 -16.1875 128.9375 C-16.07792969 127.93589844 -15.96835938 126.93429688 -15.85546875 125.90234375 C-16.02557594 122.48640751 -17.04215004 120.75717889 -19 118 C-25.59100891 127.33726263 -28.37233978 137.24214927 -28.62890625 148.63671875 C-28.75136719 149.41660156 -28.87382812 150.19648438 -29 151 C-29.99 151.66 -30.98 152.32 -32 153 C-33.03013277 154.64821244 -34.03114628 156.31503702 -35 158 C-37 160 -37 160 -40 160.1875 C-43 160 -43 160 -45 159 C-45.81565754 153.75648724 -44.81122379 151.3834598 -41.75 147.0625 C-35.2424733 137.42660853 -33.05709224 125.44770945 -33.421875 113.91796875 C-34.05386619 110.72812134 -34.59069378 109.71950286 -37.0625 107.6875 C-37.69929688 107.27371094 -38.33609375 106.85992187 -38.9921875 106.43359375 C-42.14823133 104.1801539 -44.09261496 101.08482674 -46.32421875 97.953125 C-47.86185775 95.89828134 -47.86185775 95.89828134 -50.0546875 95.00390625 C-52.62306987 93.67845591 -53.18749289 92.26104405 -54.4375 89.6875 C-56.49761037 85.74998018 -58.66975711 82.9972186 -62 80 C-62.763125 79.175 -63.52625 78.35 -64.3125 77.5 C-72.00292644 70.34611494 -81.64575125 66.3765633 -91.73828125 63.90625 C-94.63544522 62.74538292 -96.02047649 61.41153678 -98 59 C-98.39404297 56.43798828 -98.39404297 56.43798828 -98.2421875 53.5703125 C-98.19320312 52.52746094 -98.14421875 51.48460937 -98.09375 50.41015625 C-98.0215625 49.32605469 -97.949375 48.24195313 -97.875 47.125 C-97.82601562 46.04863281 -97.77703125 44.97226563 -97.7265625 43.86328125 C-97.43867214 38.55693851 -96.93345663 33.99542059 -95 29 C-94.80952022 25.25389773 -94.81315309 22.56054073 -96 19 C-96.66 18.34 -97.32 17.68 -98 17 C-96.94683594 16.90203125 -95.89367187 16.8040625 -94.80859375 16.703125 C-86.15398197 15.83068837 -78.13658326 14.38941735 -69.7578125 12.0234375 C-53.74715605 7.66294687 -37.90893331 6.04244461 -22.6875 14.1875 C-19.29452265 15.98785533 -16.89644053 16.60611297 -13 16 C-8.8935643 13.98564432 -7.01878874 11.97486872 -4.8125 8 C-4.32394531 7.13375 -3.83539063 6.2675 -3.33203125 5.375 C-2.89246094 4.59125 -2.45289063 3.8075 -2 3 C-1.34 2.01 -0.68 1.02 0 0 Z " fill="#6A81A7" transform="translate(238,69)"/>
<path d="M0 0 C4.10682335 0.46395075 6.38493524 0.86444641 9.1875 3.9375 C13.57543634 7.98566251 18.21741705 8.44608059 24 9 C24.69222656 9.10570313 25.38445312 9.21140625 26.09765625 9.3203125 C31.83494991 9.86223346 35.73240429 7.2085853 40.484375 4.21484375 C43 3 43 3 45.328125 3.31640625 C46.15570313 3.65478516 46.15570313 3.65478516 47 4 C47.02698189 5.62490954 47.04638757 7.24994633 47.0625 8.875 C47.07410156 9.77992187 47.08570313 10.68484375 47.09765625 11.6171875 C47 14 47 14 46 16 C45.5255132 19.94483277 45.34609933 23.90903074 45.125 27.875 C45.03992188 28.97714844 44.95484375 30.07929687 44.8671875 31.21484375 C44.3658664 37.37938797 44.3658664 37.37938797 47.07421875 42.640625 C50.26674111 44.12393312 53.25963334 45.06889474 56.6875 45.875 C63.27263924 47.63333561 68.45721464 50.06706774 74 54 C74.61875 54.43570313 75.2375 54.87140625 75.875 55.3203125 C79.24794931 57.89867279 80.52701203 60.10710321 82 64 C82.61101562 64.26167969 83.22203125 64.52335937 83.8515625 64.79296875 C86.85678903 66.48135966 87.69557268 68.58680115 89.25 71.625 C89.77078125 72.62789063 90.2915625 73.63078125 90.828125 74.6640625 C91.40820312 75.82035156 91.40820312 75.82035156 92 77 C79.55265955 82.70503104 70.49119544 82.91788883 57.28515625 79.15625 C52.4242727 77.80004619 47.50316775 76.76978196 42.5625 75.75 C41.29140381 75.48751465 41.29140381 75.48751465 39.99462891 75.21972656 C37.9970815 74.80990982 35.99863875 74.4044608 34 74 C33.82897275 78.37484059 33.66401117 82.74989121 33.5 87.125 C33.45230469 88.34316406 33.40460938 89.56132812 33.35546875 90.81640625 C32.67763585 106.01889774 32.67763585 106.01889774 33.5 121.1875 C35.01028178 134.84766056 35.01028178 134.84766056 32.5625 140.0625 C29.07239739 142.70135807 25.38900478 143.8559593 21 144 C20.34 143.34 19.68 142.68 19 142 C19.17811619 137.63615335 20.12175415 134.58280485 22.0625 130.6875 C26.14211297 121.85826463 24.04727002 111.94116678 21 103 C20.02246356 101.97803008 19.02447856 100.97490701 18 100 C17.41015625 98.01953125 17.41015625 98.01953125 17.0625 95.8125 C16.11843651 91.01480028 14.30298126 87.27471179 12 83 C10.74370336 80.40210263 9.4923078 77.80196744 8.24609375 75.19921875 C7.13519082 72.99738056 7.13519082 72.99738056 5.53515625 71.58203125 C1.70434908 67.63425287 0.64618231 63.49074207 0.6875 58.078125 C0.708125 57.39234375 0.72875 56.7065625 0.75 56 C0.75773437 54.97132813 0.75773437 54.97132813 0.765625 53.921875 C0.81418027 50.74150474 1.04413199 47.76544663 1.6328125 44.63671875 C1.75398438 43.76660156 1.87515625 42.89648438 2 42 C0.18739868 39.77068176 0.18739868 39.77068176 -2 38 C-2.92350727 35.22947819 -3.16329585 33.43311242 -3.1875 30.5625 C-3.20167969 29.80066406 -3.21585937 29.03882812 -3.23046875 28.25390625 C-3 26 -3 26 -2.01147461 24.18432617 C-0.8136063 21.59747419 -0.68510404 19.63964911 -0.5859375 16.796875 C-0.54726562 15.8171875 -0.50859375 14.8375 -0.46875 13.828125 C-0.4378125 12.81234375 -0.406875 11.7965625 -0.375 10.75 C-0.33632812 9.71875 -0.29765625 8.6875 -0.2578125 7.625 C-0.16368326 5.0835106 -0.07805021 2.54202567 0 0 Z " fill="#414044" transform="translate(96,88)"/>
<path d="M0 0 C1.62490954 -0.02698189 3.24994633 -0.04638757 4.875 -0.0625 C5.77992187 -0.07410156 6.68484375 -0.08570313 7.6171875 -0.09765625 C10 0 10 0 12 1 C12.36666894 4.2083532 12.10141219 5.81040329 10.5625 8.6875 C7.16119654 11.75696897 3.58404134 12.84955849 -1 13 C-1.66 12.34 -2.32 11.68 -3 11 C-2.69113208 6.83028311 -1.96662189 3.6592063 0 0 Z " fill="#6C82A6" transform="translate(118,219)"/>
<path d="M0 0 C2.35953094 2.35953094 2.49141413 3.77895617 3 7 C3.99 7.33 4.98 7.66 6 8 C7.31640625 10.109375 7.31640625 10.109375 8.5625 12.75 C8.97628906 13.61109375 9.39007813 14.4721875 9.81640625 15.359375 C10.94742758 17.88270971 11.99473108 20.42428793 13 23 C12.236875 22.67 11.47375 22.34 10.6875 22 C8.00930865 20.82563314 8.00930865 20.82563314 5 21 C5 20.34 5 19.68 5 19 C4.01 19 3.02 19 2 19 C2 18.01 2 17.02 2 16 C0.68 15.67 -0.64 15.34 -2 15 C-2.33 12.36 -2.66 9.72 -3 7 C-2.01 7 -1.02 7 0 7 C0 4.69 0 2.38 0 0 Z " fill="#677DA5" transform="translate(98,153)"/>
<path d="M0 0 C0.66 0 1.32 0 2 0 C1.34 14.85 0.68 29.7 0 45 C-2 43 -2 43 -2.24291992 41.1784668 C-2.23881104 40.44281494 -2.23470215 39.70716309 -2.23046875 38.94921875 C-2.22926025 38.11487305 -2.22805176 37.28052734 -2.22680664 36.42089844 C-2.21383545 35.51887695 -2.20086426 34.61685547 -2.1875 33.6875 C-2.17674438 32.30159668 -2.17674438 32.30159668 -2.16577148 30.88769531 C-2.08731032 24.00403578 -1.86601931 17.12718709 -1.5625 10.25 C-1.52342529 9.33951904 -1.48435059 8.42903809 -1.4440918 7.4909668 C-1.12373973 1.12373973 -1.12373973 1.12373973 0 0 Z " fill="#333435" transform="translate(128,162)"/>
<path d="M0 0 C0.69738281 0.00451172 1.39476563 0.00902344 2.11328125 0.01367188 C3.82555803 0.0253998 5.53779033 0.04333347 7.25 0.0625 C7.25 1.0525 7.25 2.0425 7.25 3.0625 C6.41597656 3.29324219 5.58195312 3.52398438 4.72265625 3.76171875 C-2.32295383 5.80357368 -8.53721729 8.14539669 -14.75 12.0625 C-14.75 11.0725 -14.75 10.0825 -14.75 9.0625 C-12.77 8.4025 -10.79 7.7425 -8.75 7.0625 C-8.75 5.4125 -8.75 3.7625 -8.75 2.0625 C-9.74 1.7325 -10.73 1.4025 -11.75 1.0625 C-7.88276369 -0.20332219 -4.01848738 -0.0493765 0 0 Z " fill="#697FA0" transform="translate(81.75,17.9375)"/>
<path d="M0 0 C0.87786631 2.91601803 1.02817723 5.08387854 0.59765625 8.08984375 C-0.06015999 13.24150577 -0.33040138 18.37642757 -0.5625 23.5625 C-0.60568359 24.47580078 -0.64886719 25.38910156 -0.69335938 26.33007812 C-0.79811757 28.55327991 -0.90029017 30.77656707 -1 33 C-1.99 33 -2.98 33 -4 33 C-3.67 32.34 -3.34 31.68 -3 31 C-3.33 30.01 -3.66 29.02 -4 28 C-4.10937474 24.76689796 -3.90392764 21.54264824 -3.75 18.3125 C-3.70939453 17.00249023 -3.70939453 17.00249023 -3.66796875 15.66601562 C-3.39898941 9.85692953 -2.31242158 5.33970466 0 0 Z " fill="#5D6E8A" transform="translate(114,189)"/>
<path d="M0 0 C2.35953094 2.35953094 2.49141413 3.77895617 3 7 C3.99 7.33 4.98 7.66 6 8 C7.31640625 10.109375 7.31640625 10.109375 8.5625 12.75 C8.97628906 13.61109375 9.39007813 14.4721875 9.81640625 15.359375 C10.94742758 17.88270971 11.99473108 20.42428793 13 23 C12.236875 22.67 11.47375 22.34 10.6875 22 C8.00930865 20.82563314 8.00930865 20.82563314 5 21 C5.226875 19.948125 5.45375 18.89625 5.6875 17.8125 C6.0334979 13.59132563 5.58399538 12.2539201 3 9 C2.34 8.67 1.68 8.34 1 8 C0.40644386 5.35139573 0.25790731 2.70802678 0 0 Z " fill="#606E89" transform="translate(98,153)"/>
<path d="M0 0 C0.66 0 1.32 0 2 0 C2 3.63 2 7.26 2 11 C2.66 11.33 3.32 11.66 4 12 C3.43454163 15.95820859 2.19097652 18.6659053 0 22 C0.763125 21.484375 1.52625 20.96875 2.3125 20.4375 C3.199375 19.963125 4.08625 19.48875 5 19 C5.99 19.33 6.98 19.66 8 20 C2.375 25 2.375 25 -1 25 C-1.125 19.25 -1.125 19.25 0 17 C0.14627011 12.75816684 0.02047656 8.76447389 -0.5625 4.5625 C-0.706875 3.386875 -0.85125 2.21125 -1 1 C-0.67 0.67 -0.34 0.34 0 0 Z " fill="#657494" transform="translate(8,38)"/>
<path d="M0 0 C0.90445271 3.02260592 1.04596579 5.48644964 0.80859375 8.625 C0.75123047 9.49640625 0.69386719 10.3678125 0.63476562 11.265625 C0.50323468 13.08882616 0.36781617 14.91175101 0.22851562 16.734375 C0.17244141 17.60578125 0.11636719 18.4771875 0.05859375 19.375 C-0.00013916 20.16648437 -0.05887207 20.95796875 -0.11938477 21.7734375 C0.02038042 24.3801011 0.50644122 25.8597611 2 28 C4.3260857 28.38063221 6.66055264 28.71269945 9 29 C10.9375 30.5625 10.9375 30.5625 12 32 C10.80375 31.938125 9.6075 31.87625 8.375 31.8125 C7.36566406 31.76029297 7.36566406 31.76029297 6.3359375 31.70703125 C2.69106239 30.60381654 0.05201905 29.20903557 -2 26 C-2.62635528 21.89011637 -2.2902049 17.94036354 -1.9375 13.8125 C-1.87111328 12.70712891 -1.80472656 11.60175781 -1.73632812 10.46289062 C-1.20996987 2.41993974 -1.20996987 2.41993974 0 0 Z " fill="#616F86" transform="translate(142,102)"/>
<path d="M0 0 C2.53448998 0.34249865 4.51553786 0.68864034 6.68359375 2.08203125 C8.77451672 5.12845018 8.07565363 7.77157174 7.75 11.375 C7.64171875 12.68210938 7.5334375 13.98921875 7.421875 15.3359375 C7.08281355 18.28074901 6.64701842 21.11072809 6 24 C5.34 24 4.68 24 4 24 C4.02094727 23.41508789 4.04189453 22.83017578 4.06347656 22.22753906 C4.14680115 19.56853535 4.19870897 16.90980645 4.25 14.25 C4.28351563 13.32960937 4.31703125 12.40921875 4.3515625 11.4609375 C4.52745326 6.01231696 4.52745326 6.01231696 1.984375 1.359375 C1.32953125 0.91078125 0.6746875 0.4621875 0 0 Z " fill="#7C8CA8" transform="translate(200,176)"/>
<path d="M0 0 C1.32 1.32 2.64 2.64 4 4 C3.01 4.495 3.01 4.495 2 5 C0.83849235 6.10291077 0.83849235 6.10291077 -0.4375 8.0625 C-0.953125 8.701875 -1.46875 9.34125 -2 10 C-2.66 10 -3.32 10 -4 10 C-4.268125 10.763125 -4.53625 11.52625 -4.8125 12.3125 C-5.94424112 14.87380884 -6.91223401 16.19692938 -9 18 C-10.32 17.34 -11.64 16.68 -13 16 C-12.24074219 15.608125 -11.48148438 15.21625 -10.69921875 14.8125 C-7.69551623 12.79554202 -6.55373179 11.13701813 -4.8125 8 C-4.32394531 7.13375 -3.83539063 6.2675 -3.33203125 5.375 C-2.89246094 4.59125 -2.45289063 3.8075 -2 3 C-1.34 2.01 -0.68 1.02 0 0 Z " fill="#72849F" transform="translate(238,69)"/>
<path d="M0 0 C1.65 0.33 3.3 0.66 5 1 C5.36666894 4.2083532 5.10141219 5.81040329 3.5625 8.6875 C0.04402489 11.86270924 -3.40025779 12.3414899 -8 13 C-8 12.34 -8 11.68 -8 11 C-7.0925 10.731875 -6.185 10.46375 -5.25 10.1875 C-2.22931703 9.08378891 -0.29946621 8.21430079 2 6 C2.79623822 3.90584196 2.79623822 3.90584196 3 2 C2.01 2 1.02 2 0 2 C0 1.34 0 0.68 0 0 Z " fill="#6A7792" transform="translate(125,219)"/>
<path d="M0 0 C0.99 0.66 1.98 1.32 3 2 C2.34 3.32 1.68 4.64 1 6 C-0.81325551 5.88648483 -2.62563357 5.75887039 -4.4375 5.625 C-5.95150391 5.52058594 -5.95150391 5.52058594 -7.49609375 5.4140625 C-8.32238281 5.27742188 -9.14867188 5.14078125 -10 5 C-10.33 4.34 -10.66 3.68 -11 3 C-7.7 3 -4.4 3 -1 3 C-0.67 2.01 -0.34 1.02 0 0 Z " fill="#64769A" transform="translate(87,50)"/>
<path d="M0 0 C0.66 0.99 1.32 1.98 2 3 C1.125 6.1875 1.125 6.1875 0 9 C2.64 9.33 5.28 9.66 8 10 C8 10.66 8 11.32 8 12 C4.37 11.67 0.74 11.34 -3 11 C-1.125 1.125 -1.125 1.125 0 0 Z " fill="#4F5360" transform="translate(122,208)"/>
<path d="M0 0 C0.66 0 1.32 0 2 0 C0.34292168 5.64913063 -1.47762012 10.26300637 -5 15 C-5.66 14.67 -6.32 14.34 -7 14 C-4.69 9.38 -2.38 4.76 0 0 Z " fill="#7489A4" transform="translate(220,208)"/>
<path d="M0 0 C5 2.5 5 2.5 7 5 C7 5.99 7 6.98 7 8 C7.66 8.66 8.32 9.32 9 10 C8.34 11.32 7.68 12.64 7 14 C4.69 9.38 2.38 4.76 0 0 Z " fill="#74819C" transform="translate(53,84)"/>
<path d="M0 0 C1.35436349 4.36755977 0.98118862 8.60196401 0.83984375 13.125 C1.00224868 16.04036663 1.61802887 17.49136164 3 20 C2.625 22.25 2.625 22.25 2 24 C-0.9724589 19.02504248 -1.41440928 15.36046678 -1.25 9.75 C-1.24484375 9.03070313 -1.2396875 8.31140625 -1.234375 7.5703125 C-1.15558639 2.31117278 -1.15558639 2.31117278 0 0 Z " fill="#485062" transform="translate(98,134)"/>
<path d="M0 0 C0.66 0.66 1.32 1.32 2 2 C1.625 4.125 1.625 4.125 1 6 C0.34 6 -0.32 6 -1 6 C-1.99 9.3 -2.98 12.6 -4 16 C-4.66 15.34 -5.32 14.68 -6 14 C-4.7023817 8.70139194 -2.84984298 4.65474354 0 0 Z " fill="#7588A5" transform="translate(104,212)"/>
<path d="M0 0 C0.33 0.66 0.66 1.32 1 2 C0.22265625 4.1640625 0.22265625 4.1640625 -0.9375 6.625 C-1.31777344 7.44226563 -1.69804687 8.25953125 -2.08984375 9.1015625 C-2.39019531 9.72804687 -2.69054687 10.35453125 -3 11 C-5 9 -5 9 -5.125 5.375 C-5.08375 4.26125 -5.0425 3.1475 -5 2 C-3.68 2.33 -2.36 2.66 -1 3 C-0.67 2.01 -0.34 1.02 0 0 Z " fill="#6876A3" transform="translate(215,189)"/>
<path d="M0 0 C2 3 2 3 2 5 C2.33 5.66 2.66 6.32 3 7 C-0.63 6.34 -4.26 5.68 -8 5 C-6.68 4.67 -5.36 4.34 -4 4 C-4 3.34 -4 2.68 -4 2 C-2.68 1.34 -1.36 0.68 0 0 Z " fill="#38383B" transform="translate(157,161)"/>
<path d="M0 0 C0.66 0.33 1.32 0.66 2 1 C2.4140625 3.94140625 2.4140625 3.94140625 2.625 7.5625 C2.69976562 8.76003906 2.77453125 9.95757812 2.8515625 11.19140625 C2.90054688 12.11824219 2.94953125 13.04507813 3 14 C2.34 14 1.68 14 1 14 C-1.20808081 8.80451575 -0.93402724 5.41735797 0 0 Z " fill="#7488A7" transform="translate(221,152)"/>
<path d="M0 0 C4.29 0.66 8.58 1.32 13 2 C13 3.32 13 4.64 13 6 C11.453125 5.2884375 11.453125 5.2884375 9.875 4.5625 C6.61465838 3.15477612 3.53948917 2.43164502 0 2 C0 1.34 0 0.68 0 0 Z " fill="#6C7A98" transform="translate(112,79)"/>
<path d="M0 0 C0.33 1.32 0.66 2.64 1 4 C3.31 4 5.62 4 8 4 C8.33 4.66 8.66 5.32 9 6 C6.04335481 7.4783226 3.25770263 7.06032783 0 7 C-1.125 2.25 -1.125 2.25 0 0 Z " fill="#6B7893" transform="translate(98,223)"/>
<path d="M0 0 C0.66 0 1.32 0 2 0 C6.04575557 4.9704997 6.04575557 4.9704997 5.875 8.8125 C5 11 5 11 3 12 C2.86722656 11.38511719 2.73445313 10.77023438 2.59765625 10.13671875 C2.42105469 9.32847656 2.24445313 8.52023438 2.0625 7.6875 C1.88847656 6.88699219 1.71445313 6.08648437 1.53515625 5.26171875 C1.00113841 2.854599 1.00113841 2.854599 0 0 Z " fill="#495365" transform="translate(111,176)"/>
<path d="M0 0 C2.64168921 0.35698503 4.60890736 0.752308 6.875 2.1875 C8 4 8 4 7.6875 7.1875 C7.460625 8.115625 7.23375 9.04375 7 10 C6.34 10 5.68 10 5 10 C4.731875 8.906875 4.46375 7.81375 4.1875 6.6875 C3.12336261 3.38307337 2.65345336 2.05039578 0 0 Z " fill="#7488A3" transform="translate(200,176)"/>
<path d="M0 0 C4.8 2.46153846 4.8 2.46153846 5.8125 5.1875 C5.874375 5.785625 5.93625 6.38375 6 7 C5.236875 6.67 4.47375 6.34 3.6875 6 C1.00930865 4.82563314 1.00930865 4.82563314 -2 5 C-2 4.01 -2 3.02 -2 2 C-1.34 2 -0.68 2 0 2 C0 1.34 0 0.68 0 0 Z " fill="#647694" transform="translate(105,169)"/>
<path d="M0 0 C2.01136276 2.55991624 3.62845496 5.04590299 5 8 C3.68 8.33 2.36 8.66 1 9 C-0.61949011 6.42786866 -1.04408751 5.32330841 -0.625 2.25 C-0.41875 1.5075 -0.2125 0.765 0 0 Z " fill="#40454F" transform="translate(183,157)"/>
<path d="M0 0 C1.45880109 0.14107747 2.91703551 0.28802415 4.375 0.4375 C5.59316406 0.55931641 5.59316406 0.55931641 6.8359375 0.68359375 C9 1 9 1 11 2 C11 2.66 11 3.32 11 4 C11.66 4 12.32 4 13 4 C13 4.66 13 5.32 13 6 C8.52761347 4.58192622 4.28853694 2.88695626 0 1 C0 0.67 0 0.34 0 0 Z " fill="#5F6D85" transform="translate(154,134)"/>
<path d="M0 0 C0.33 0.66 0.66 1.32 1 2 C1.66 2 2.32 2 3 2 C2.74438677 4.3431213 2.40729228 6.67843403 2 9 C1.01 9.495 1.01 9.495 0 10 C-0.19412181 8.52168779 -0.38012131 7.04230684 -0.5625 5.5625 C-0.66691406 4.73878906 -0.77132812 3.91507813 -0.87890625 3.06640625 C-0.91886719 2.38449219 -0.95882812 1.70257813 -1 1 C-0.67 0.67 -0.34 0.34 0 0 Z " fill="#484749" transform="translate(121,199)"/>
<path d="M0 0 C0.66 0.33 1.32 0.66 2 1 C1.67 3.97 1.34 6.94 1 10 C0.01 9.67 -0.98 9.34 -2 9 C-1.34 6.03 -0.68 3.06 0 0 Z " fill="#7889A1" transform="translate(203,200)"/>
<path d="M0 0 C4 4.625 4 4.625 4 8 C3.34 8.66 2.68 9.32 2 10 C1.01 7.03 0.02 4.06 -1 1 C-0.67 0.67 -0.34 0.34 0 0 Z " fill="#65789B" transform="translate(79,134)"/>
<path d="M0 0 C2.31 0.33 4.62 0.66 7 1 C7.33 2.65 7.66 4.3 8 6 C7.67 5.34 7.34 4.68 7 4 C4.59047977 2.75285597 4.59047977 2.75285597 2 2 C1.01 2.495 1.01 2.495 0 3 C0 2.01 0 1.02 0 0 Z " fill="#6074A2" transform="translate(204,80)"/>
<path d="M0 0 C0.66 0 1.32 0 2 0 C2 0.66 2 1.32 2 2 C2.66 2 3.32 2 4 2 C5.0625 3.75 5.0625 3.75 6 6 C5.67 7.32 5.34 8.64 5 10 C3.35 6.7 1.7 3.4 0 0 Z " fill="#6C7D94" transform="translate(64,106)"/>
<path d="M0 0 C0.33 0.66 0.66 1.32 1 2 C3.52733235 2.65555119 3.52733235 2.65555119 6 3 C6.33 3.99 6.66 4.98 7 6 C3.31245243 5.50168276 1.39509338 4.89932357 -1 2 C-0.67 1.34 -0.34 0.68 0 0 Z " fill="#7388A7" transform="translate(28,57)"/>
<path d="M0 0 C4.29 0 8.58 0 13 0 C13 0.99 13 1.98 13 3 C12.01 3 11.02 3 10 3 C10 2.34 10 1.68 10 1 C6.7 1 3.4 1 0 1 C0 0.67 0 0.34 0 0 Z " fill="#79849F" transform="translate(76,18)"/>
</svg>
